<svg width="335" height="92" viewBox="0 0 335 92" fill="none" xmlns="http://www.w3.org/2000/svg">
<path d="M60.024 67.96C56.696 67.96 53.7093 67.448 51.064 66.424C48.4187 65.4 46.1787 63.9067 44.344 61.944C42.5093 59.9387 41.1013 57.5067 40.12 54.648C39.1387 51.7893 38.648 48.504 38.648 44.792C38.648 41.08 39.2027 37.7947 40.312 34.936C41.464 32.0773 43.0213 29.6667 44.984 27.704C46.9467 25.6987 49.2507 24.184 51.896 23.16C54.5413 22.136 57.3787 21.624 60.408 21.624C62.2427 21.624 63.9067 21.7733 65.4 22.072C66.8933 22.328 68.1947 22.6267 69.304 22.968C70.4133 23.3093 71.3307 23.672 72.056 24.056C72.7813 24.44 73.2933 24.7173 73.592 24.888L71.224 31.48C70.2 30.84 68.728 30.2427 66.808 29.688C64.9307 29.0907 62.8827 28.792 60.664 28.792C58.744 28.792 56.952 29.1333 55.288 29.816C53.624 30.456 52.1733 31.4373 50.936 32.76C49.7413 34.0827 48.8027 35.7467 48.12 37.752C47.4373 39.7573 47.096 42.0827 47.096 44.728C47.096 47.0747 47.352 49.2293 47.864 51.192C48.4187 53.1547 49.2507 54.8613 50.36 56.312C51.4693 57.72 52.8773 58.8293 54.584 59.64C56.2907 60.408 58.3387 60.792 60.728 60.792C63.5867 60.792 65.912 60.5147 67.704 59.96C69.496 59.3627 70.8827 58.808 71.864 58.296L74.04 64.888C73.528 65.2293 72.824 65.5707 71.928 65.912C71.0747 66.2533 70.0507 66.5947 68.856 66.936C67.6613 67.2347 66.3173 67.4693 64.824 67.64C63.3307 67.8533 61.7307 67.96 60.024 67.96ZM86.5915 44.792C86.5915 47.224 86.8902 49.4427 87.4875 51.448C88.0848 53.4107 88.9382 55.096 90.0475 56.504C91.1995 57.8693 92.5862 58.936 94.2075 59.704C95.8288 60.472 97.6635 60.856 99.7115 60.856C101.717 60.856 103.53 60.472 105.152 59.704C106.773 58.936 108.138 57.8693 109.248 56.504C110.4 55.096 111.274 53.4107 111.872 51.448C112.469 49.4427 112.768 47.224 112.768 44.792C112.768 42.36 112.469 40.1627 111.872 38.2C111.274 36.1947 110.4 34.5093 109.248 33.144C108.138 31.736 106.773 30.648 105.152 29.88C103.53 29.112 101.717 28.728 99.7115 28.728C97.6635 28.728 95.8288 29.112 94.2075 29.88C92.5862 30.648 91.1995 31.736 90.0475 33.144C88.9382 34.552 88.0848 36.2373 87.4875 38.2C86.8902 40.1627 86.5915 42.36 86.5915 44.792ZM121.216 44.792C121.216 48.5893 120.64 51.9387 119.488 54.84C118.378 57.7413 116.842 60.1733 114.88 62.136C112.96 64.056 110.698 65.5067 108.096 66.488C105.493 67.4693 102.72 67.96 99.7755 67.96C96.8315 67.96 94.0368 67.4693 91.3915 66.488C88.7888 65.5067 86.5062 64.056 84.5435 62.136C82.6235 60.1733 81.0875 57.7413 79.9355 54.84C78.7835 51.9387 78.2075 48.5893 78.2075 44.792C78.2075 40.9947 78.7835 37.6667 79.9355 34.808C81.0875 31.9067 82.6448 29.4747 84.6075 27.512C86.6128 25.5493 88.9168 24.0773 91.5195 23.096C94.1222 22.1147 96.8742 21.624 99.7755 21.624C102.677 21.624 105.429 22.1147 108.032 23.096C110.634 24.0773 112.896 25.5493 114.816 27.512C116.778 29.4747 118.336 31.9067 119.488 34.808C120.64 37.6667 121.216 40.9947 121.216 44.792ZM138.126 60.344C138.595 60.3867 139.214 60.4293 139.982 60.472C140.75 60.472 141.795 60.472 143.118 60.472C148.537 60.472 152.569 59.1067 155.214 56.376C157.902 53.6027 159.246 49.7413 159.246 44.792C159.246 39.7573 157.945 35.896 155.342 33.208C152.739 30.52 148.707 29.176 143.246 29.176C140.857 29.176 139.15 29.24 138.126 29.368V60.344ZM167.694 44.792C167.694 48.632 167.097 51.9813 165.902 54.84C164.707 57.656 163.001 60.024 160.782 61.944C158.606 63.8213 155.961 65.2293 152.846 66.168C149.774 67.064 146.361 67.512 142.606 67.512C140.814 67.512 138.787 67.4267 136.526 67.256C134.265 67.128 132.11 66.8293 130.062 66.36V23.288C132.11 22.8187 134.286 22.52 136.59 22.392C138.894 22.264 140.942 22.2 142.734 22.2C146.446 22.2 149.838 22.648 152.91 23.544C155.982 24.3973 158.606 25.7627 160.782 27.64C163.001 29.4747 164.707 31.8213 165.902 34.68C167.097 37.496 167.694 40.8667 167.694 44.792ZM176.5 67V22.648H204.979V29.496H184.564V40.44H202.74V47.16H184.564V60.152H206.516V67H176.5ZM226.8 17.336C228.293 17.336 229.573 17.4427 230.64 17.656C231.706 17.8267 232.474 17.9973 232.944 18.168L232.112 23.288C231.642 23.1173 231.002 22.9467 230.192 22.776C229.381 22.5627 228.4 22.456 227.248 22.456C224.474 22.456 222.533 23.224 221.424 24.76C220.314 26.2533 219.76 28.28 219.76 30.84V33.72H232.56V38.712H219.76V67H213.808V30.712C213.808 26.4453 214.853 23.16 216.944 20.856C219.034 18.5093 222.32 17.336 226.8 17.336ZM248.752 67.64C245.082 67.5547 242.48 66.7653 240.944 65.272C239.408 63.7787 238.64 61.4533 238.64 58.296V18.36L244.592 17.336V57.336C244.592 58.3173 244.677 59.128 244.847 59.768C245.018 60.408 245.296 60.92 245.68 61.304C246.064 61.688 246.576 61.9867 247.216 62.2C247.856 62.3707 248.645 62.52 249.584 62.648L248.752 67.64ZM262.197 67H256.245V33.72H262.197V67ZM259.189 27.704C258.122 27.704 257.205 27.3627 256.437 26.68C255.712 25.9547 255.349 24.9947 255.349 23.8C255.349 22.6053 255.712 21.6667 256.437 20.984C257.205 20.2587 258.122 19.896 259.189 19.896C260.256 19.896 261.152 20.2587 261.877 20.984C262.645 21.6667 263.029 22.6053 263.029 23.8C263.029 24.9947 262.645 25.9547 261.877 26.68C261.152 27.3627 260.256 27.704 259.189 27.704ZM292.337 67C291.867 66.0613 291.291 65.016 290.609 63.864C289.926 62.712 289.179 61.5387 288.369 60.344C287.558 59.1067 286.726 57.8907 285.873 56.696C285.019 55.5013 284.187 54.3707 283.377 53.304C282.566 54.3707 281.734 55.5227 280.881 56.76C280.027 57.9547 279.195 59.1707 278.385 60.408C277.617 61.6027 276.891 62.776 276.209 63.928C275.526 65.08 274.95 66.104 274.481 67H268.337C269.83 64.0987 271.601 61.1547 273.649 58.168C275.739 55.1387 277.809 52.2587 279.857 49.528L268.849 33.72H275.569L283.505 45.368L291.505 33.72H297.841L287.089 49.144C289.137 51.9173 291.227 54.8613 293.361 57.976C295.537 61.048 297.371 64.056 298.865 67H292.337Z" fill="#FFFEFE"/>
<rect x="3" y="3" width="329" height="80" stroke="#FFFEFE" stroke-width="6"/>
<rect x="83" y="73" width="180" height="19" fill="white"/>
<path d="M113.434 88.065C112.541 88.065 111.735 87.8657 111.016 87.467C110.305 87.0683 109.742 86.518 109.326 85.816C108.919 85.114 108.715 84.3253 108.715 83.45C108.715 82.5747 108.919 81.786 109.326 81.084C109.742 80.382 110.305 79.8317 111.016 79.433C111.735 79.0343 112.541 78.835 113.434 78.835C114.093 78.835 114.699 78.9433 115.254 79.16C115.809 79.368 116.281 79.68 116.671 80.096L116.255 80.525C115.527 79.8057 114.595 79.446 113.46 79.446C112.697 79.446 112.004 79.6193 111.38 79.966C110.756 80.3127 110.266 80.7937 109.911 81.409C109.556 82.0157 109.378 82.696 109.378 83.45C109.378 84.204 109.556 84.8887 109.911 85.504C110.266 86.1107 110.756 86.5873 111.38 86.934C112.004 87.2807 112.697 87.454 113.46 87.454C114.587 87.454 115.518 87.09 116.255 86.362L116.671 86.791C116.281 87.207 115.804 87.5233 115.241 87.74C114.686 87.9567 114.084 88.065 113.434 88.065ZM121.018 88.052C120.377 88.052 119.796 87.9047 119.276 87.61C118.765 87.3153 118.362 86.908 118.067 86.388C117.773 85.8593 117.625 85.2657 117.625 84.607C117.625 83.9483 117.773 83.359 118.067 82.839C118.362 82.3103 118.765 81.8987 119.276 81.604C119.796 81.3093 120.377 81.162 121.018 81.162C121.66 81.162 122.236 81.3093 122.747 81.604C123.267 81.8987 123.675 82.3103 123.969 82.839C124.264 83.359 124.411 83.9483 124.411 84.607C124.411 85.2657 124.264 85.8593 123.969 86.388C123.675 86.908 123.267 87.3153 122.747 87.61C122.236 87.9047 121.66 88.052 121.018 88.052ZM121.018 87.467C121.538 87.467 122.002 87.3457 122.409 87.103C122.825 86.8603 123.15 86.5223 123.384 86.089C123.627 85.6557 123.748 85.1617 123.748 84.607C123.748 84.0523 123.627 83.5583 123.384 83.125C123.15 82.6917 122.825 82.3537 122.409 82.111C122.002 81.8683 121.538 81.747 121.018 81.747C120.498 81.747 120.03 81.8683 119.614 82.111C119.207 82.3537 118.882 82.6917 118.639 83.125C118.405 83.5583 118.288 84.0523 118.288 84.607C118.288 85.1617 118.405 85.6557 118.639 86.089C118.882 86.5223 119.207 86.8603 119.614 87.103C120.03 87.3457 120.498 87.467 121.018 87.467ZM132.46 78.354V88H131.823V86.401C131.554 86.9297 131.177 87.337 130.692 87.623C130.206 87.909 129.656 88.052 129.041 88.052C128.408 88.052 127.836 87.9047 127.325 87.61C126.813 87.3153 126.41 86.908 126.116 86.388C125.83 85.868 125.687 85.2743 125.687 84.607C125.687 83.9397 125.83 83.346 126.116 82.826C126.41 82.2973 126.813 81.89 127.325 81.604C127.836 81.3093 128.408 81.162 129.041 81.162C129.647 81.162 130.189 81.305 130.666 81.591C131.151 81.877 131.532 82.2757 131.81 82.787V78.354H132.46ZM129.08 87.467C129.6 87.467 130.063 87.3457 130.471 87.103C130.887 86.8603 131.212 86.5223 131.446 86.089C131.688 85.6557 131.81 85.1617 131.81 84.607C131.81 84.0523 131.688 83.5583 131.446 83.125C131.212 82.6917 130.887 82.3537 130.471 82.111C130.063 81.8683 129.6 81.747 129.08 81.747C128.56 81.747 128.092 81.8683 127.676 82.111C127.268 82.3537 126.943 82.6917 126.701 83.125C126.467 83.5583 126.35 84.0523 126.35 84.607C126.35 85.1617 126.467 85.6557 126.701 86.089C126.943 86.5223 127.268 86.8603 127.676 87.103C128.092 87.3457 128.56 87.467 129.08 87.467ZM140.933 84.763H135.096C135.114 85.2917 135.248 85.764 135.499 86.18C135.751 86.5873 136.089 86.9037 136.513 87.129C136.947 87.3543 137.432 87.467 137.969 87.467C138.411 87.467 138.819 87.389 139.191 87.233C139.573 87.0683 139.889 86.83 140.14 86.518L140.517 86.947C140.223 87.3023 139.85 87.5753 139.399 87.766C138.957 87.9567 138.476 88.052 137.956 88.052C137.28 88.052 136.678 87.9047 136.149 87.61C135.621 87.3153 135.205 86.908 134.901 86.388C134.607 85.868 134.459 85.2743 134.459 84.607C134.459 83.9483 134.598 83.359 134.875 82.839C135.161 82.3103 135.551 81.8987 136.045 81.604C136.539 81.3093 137.094 81.162 137.709 81.162C138.325 81.162 138.875 81.3093 139.36 81.604C139.854 81.89 140.24 82.293 140.517 82.813C140.803 83.333 140.946 83.9223 140.946 84.581L140.933 84.763ZM137.709 81.734C137.233 81.734 136.804 81.8423 136.422 82.059C136.041 82.267 135.733 82.566 135.499 82.956C135.274 83.3373 135.144 83.7707 135.109 84.256H140.309C140.283 83.7707 140.153 83.3373 139.919 82.956C139.685 82.5747 139.378 82.2757 138.996 82.059C138.615 81.8423 138.186 81.734 137.709 81.734ZM155.994 81.214L153.42 88H152.809L150.521 82.111L148.22 88H147.622L145.048 81.214H145.672L147.934 87.272L150.248 81.214H150.807L153.108 87.259L155.396 81.214H155.994ZM157.506 81.214H158.156V88H157.506V81.214ZM157.831 79.563C157.684 79.563 157.558 79.5153 157.454 79.42C157.35 79.316 157.298 79.1903 157.298 79.043C157.298 78.8957 157.35 78.77 157.454 78.666C157.558 78.562 157.684 78.51 157.831 78.51C157.978 78.51 158.104 78.562 158.208 78.666C158.312 78.7613 158.364 78.8827 158.364 79.03C158.364 79.1773 158.312 79.303 158.208 79.407C158.104 79.511 157.978 79.563 157.831 79.563ZM164.263 87.571C164.098 87.727 163.89 87.8483 163.639 87.935C163.396 88.013 163.14 88.052 162.872 88.052C162.282 88.052 161.827 87.8917 161.507 87.571C161.186 87.2417 161.026 86.7867 161.026 86.206V81.773H159.778V81.214H161.026V79.732H161.676V81.214H163.834V81.773H161.676V86.141C161.676 86.583 161.78 86.921 161.988 87.155C162.204 87.3803 162.521 87.493 162.937 87.493C163.361 87.493 163.712 87.3673 163.99 87.116L164.263 87.571ZM169.39 81.162C170.24 81.162 170.911 81.409 171.405 81.903C171.899 82.397 172.146 83.1077 172.146 84.035V88H171.496V84.087C171.496 83.3243 171.301 82.7437 170.911 82.345C170.53 81.9463 169.993 81.747 169.299 81.747C168.502 81.747 167.874 81.9853 167.414 82.462C166.955 82.9387 166.725 83.58 166.725 84.386V88H166.075V78.354H166.725V82.631C166.959 82.163 167.306 81.8033 167.765 81.552C168.225 81.292 168.766 81.162 169.39 81.162ZM183.998 85.439H178.72L177.563 88H176.848L181.034 78.9H181.697L185.883 88H185.168L183.998 85.439ZM183.751 84.88L181.359 79.628L178.98 84.88H183.751ZM190.733 81.162C191.366 81.162 191.938 81.3093 192.449 81.604C192.961 81.89 193.359 82.2973 193.645 82.826C193.94 83.346 194.087 83.9397 194.087 84.607C194.087 85.2743 193.94 85.868 193.645 86.388C193.359 86.908 192.961 87.3153 192.449 87.61C191.938 87.9047 191.366 88.052 190.733 88.052C190.127 88.052 189.576 87.909 189.082 87.623C188.597 87.3283 188.22 86.921 187.951 86.401V88H187.327V78.354H187.977V82.761C188.246 82.2583 188.623 81.8683 189.108 81.591C189.594 81.305 190.135 81.162 190.733 81.162ZM190.694 87.467C191.214 87.467 191.682 87.3457 192.098 87.103C192.514 86.8603 192.839 86.5223 193.073 86.089C193.316 85.6557 193.437 85.1617 193.437 84.607C193.437 84.0523 193.316 83.5583 193.073 83.125C192.839 82.6917 192.514 82.3537 192.098 82.111C191.682 81.8683 191.214 81.747 190.694 81.747C190.174 81.747 189.706 81.8683 189.29 82.111C188.883 82.3537 188.558 82.6917 188.315 83.125C188.081 83.5583 187.964 84.0523 187.964 84.607C187.964 85.1617 188.081 85.6557 188.315 86.089C188.558 86.5223 188.883 86.8603 189.29 87.103C189.706 87.3457 190.174 87.467 190.694 87.467ZM199.415 81.162C200.264 81.162 200.936 81.409 201.43 81.903C201.924 82.397 202.171 83.1077 202.171 84.035V88H201.521V84.087C201.521 83.3243 201.326 82.7437 200.936 82.345C200.554 81.9463 200.017 81.747 199.324 81.747C198.526 81.747 197.898 81.9853 197.439 82.462C196.979 82.9387 196.75 83.58 196.75 84.386V88H196.1V78.354H196.75V82.631C196.984 82.163 197.33 81.8033 197.79 81.552C198.249 81.292 198.791 81.162 199.415 81.162ZM204.847 81.214H205.497V88H204.847V81.214ZM205.172 79.563C205.024 79.563 204.899 79.5153 204.795 79.42C204.691 79.316 204.639 79.1903 204.639 79.043C204.639 78.8957 204.691 78.77 204.795 78.666C204.899 78.562 205.024 78.51 205.172 78.51C205.319 78.51 205.445 78.562 205.549 78.666C205.653 78.7613 205.705 78.8827 205.705 79.03C205.705 79.1773 205.653 79.303 205.549 79.407C205.445 79.511 205.319 79.563 205.172 79.563ZM209.952 88.052C209.406 88.052 208.886 87.9697 208.392 87.805C207.898 87.6403 207.513 87.4323 207.235 87.181L207.534 86.661C207.812 86.895 208.167 87.09 208.6 87.246C209.042 87.402 209.502 87.48 209.978 87.48C210.663 87.48 211.166 87.3673 211.486 87.142C211.816 86.9167 211.98 86.6047 211.98 86.206C211.98 85.92 211.889 85.6947 211.707 85.53C211.534 85.3653 211.317 85.244 211.057 85.166C210.797 85.088 210.438 85.0057 209.978 84.919C209.441 84.8237 209.008 84.7197 208.678 84.607C208.349 84.4943 208.067 84.3123 207.833 84.061C207.599 83.8097 207.482 83.463 207.482 83.021C207.482 82.4837 207.703 82.0417 208.145 81.695C208.596 81.3397 209.233 81.162 210.056 81.162C210.49 81.162 210.919 81.2227 211.343 81.344C211.768 81.4653 212.115 81.6257 212.383 81.825L212.084 82.345C211.807 82.1457 211.491 81.994 211.135 81.89C210.78 81.786 210.416 81.734 210.043 81.734C209.411 81.734 208.934 81.851 208.613 82.085C208.293 82.319 208.132 82.6267 208.132 83.008C208.132 83.3113 208.223 83.5497 208.405 83.723C208.587 83.8877 208.808 84.0133 209.068 84.1C209.337 84.178 209.71 84.2647 210.186 84.36C210.715 84.4553 211.14 84.5593 211.46 84.672C211.79 84.776 212.067 84.9493 212.292 85.192C212.518 85.4347 212.63 85.7683 212.63 86.193C212.63 86.7563 212.396 87.207 211.928 87.545C211.46 87.883 210.802 88.052 209.952 88.052ZM217.759 81.162C218.609 81.162 219.28 81.409 219.774 81.903C220.268 82.397 220.515 83.1077 220.515 84.035V88H219.865V84.087C219.865 83.3243 219.67 82.7437 219.28 82.345C218.899 81.9463 218.362 81.747 217.668 81.747C216.871 81.747 216.243 81.9853 215.783 82.462C215.324 82.9387 215.094 83.58 215.094 84.386V88H214.444V78.354H215.094V82.631C215.328 82.163 215.675 81.8033 216.134 81.552C216.594 81.292 217.135 81.162 217.759 81.162ZM228.937 84.763H223.1C223.118 85.2917 223.252 85.764 223.503 86.18C223.755 86.5873 224.093 86.9037 224.517 87.129C224.951 87.3543 225.436 87.467 225.973 87.467C226.415 87.467 226.823 87.389 227.195 87.233C227.577 87.0683 227.893 86.83 228.144 86.518L228.521 86.947C228.227 87.3023 227.854 87.5753 227.403 87.766C226.961 87.9567 226.48 88.052 225.96 88.052C225.284 88.052 224.682 87.9047 224.153 87.61C223.625 87.3153 223.209 86.908 222.905 86.388C222.611 85.868 222.463 85.2743 222.463 84.607C222.463 83.9483 222.602 83.359 222.879 82.839C223.165 82.3103 223.555 81.8987 224.049 81.604C224.543 81.3093 225.098 81.162 225.713 81.162C226.329 81.162 226.879 81.3093 227.364 81.604C227.858 81.89 228.244 82.293 228.521 82.813C228.807 83.333 228.95 83.9223 228.95 84.581L228.937 84.763ZM225.713 81.734C225.237 81.734 224.808 81.8423 224.426 82.059C224.045 82.267 223.737 82.566 223.503 82.956C223.278 83.3373 223.148 83.7707 223.113 84.256H228.313C228.287 83.7707 228.157 83.3373 227.923 82.956C227.689 82.5747 227.382 82.2757 227 82.059C226.619 81.8423 226.19 81.734 225.713 81.734ZM233.379 84.373L231.611 85.985V88H230.961V78.354H231.611V85.179L235.953 81.214H236.785L233.86 83.957L237.071 88H236.265L233.379 84.373Z" fill="#0F0F0F"/>
</svg>
